<?xml version="1.0" encoding="UTF-8"?>
<svg width="171px" height="171px" viewBox="0 0 171 171" version="1.1" xmlns="http://www.w3.org/2000/svg" xmlns:xlink="http://www.w3.org/1999/xlink">
    <!-- Generator: Sketch 51.2 (57519) - http://www.bohemiancoding.com/sketch -->
    <title>feature-password</title>
    <desc>Created with Sketch.</desc>
    <defs>
        <rect id="path-1" x="0.339824219" y="0.6174875" width="145.3125" height="93"></rect>
        <filter x="-9.6%" y="-14.0%" width="119.3%" height="130.1%" filterUnits="objectBoundingBox" id="filter-2">
            <feOffset dx="0" dy="1" in="SourceAlpha" result="shadowOffsetOuter1"></feOffset>
            <feGaussianBlur stdDeviation="4.5" in="shadowOffsetOuter1" result="shadowBlurOuter1"></feGaussianBlur>
            <feColorMatrix values="0 0 0 0 0   0 0 0 0 0   0 0 0 0 0  0 0 0 0.0683876812 0" type="matrix" in="shadowBlurOuter1"></feColorMatrix>
        </filter>
    </defs>
    <g id="feature-password" stroke="none" stroke-width="1" fill="none" fill-rule="evenodd">
        <g id="Group" transform="translate(14.000000, 45.000000)">
            <g id="Rectangle-16">
                <use fill="black" fill-opacity="1" filter="url(#filter-2)" xlink:href="#path-1"></use>
                <use fill="#FFFFFF" fill-rule="evenodd" xlink:href="#path-1"></use>
            </g>
            <g id="Group-9" transform="translate(29.496074, 17.617487)">
                <path d="M18.3544922,6.03662109 C19.2262413,6.03662109 19.9234186,6.35823246 20.4460449,7.00146484 C20.9686712,7.64469723 21.2299805,8.50373812 21.2299805,9.57861328 C21.2299805,10.6492567 20.9686712,11.5072396 20.4460449,12.1525879 C19.9234186,12.7979362 19.2262413,13.1206055 18.3544922,13.1206055 C17.8678361,13.1206055 17.4361998,13.019044 17.0595703,12.815918 C16.6829408,12.612792 16.4015309,12.331382 16.215332,11.9716797 L16.1137695,11.9716797 L16.1137695,15.2851562 L15.0219727,15.2851562 L15.0219727,6.15722656 L16.0629883,6.15722656 L16.0629883,7.29980469 L16.1645508,7.29980469 C16.384604,6.90624803 16.6882305,6.59733185 17.0754395,6.37304688 C17.4626484,6.1487619 17.8889951,6.03662109 18.3544922,6.03662109 Z M18.0942383,12.1367188 C18.7247753,12.1367188 19.2167137,11.9103213 19.5700684,11.4575195 C19.923423,11.0047178 20.1000977,10.378422 20.1000977,9.57861328 C20.1000977,8.77880459 19.923423,8.15250877 19.5700684,7.69970703 C19.2167137,7.24690529 18.7268912,7.02050781 18.1005859,7.02050781 C17.4827443,7.02050781 16.9918638,7.25007908 16.6279297,7.70922852 C16.2639956,8.16837795 16.0820312,8.79149997 16.0820312,9.57861328 C16.0820312,10.3614948 16.2639956,10.9835589 16.6279297,11.4448242 C16.9918638,11.9060895 17.4806284,12.1367188 18.0942383,12.1367188 Z M24.9750977,12.1621094 C25.537926,12.1621094 26.0044741,11.9981299 26.3747559,11.670166 C26.7450377,11.3422021 26.9301758,10.9348983 26.9301758,10.4482422 L26.9301758,9.81982422 L25.0893555,9.94042969 C24.0906526,10.0081384 23.5913086,10.3805305 23.5913086,11.0576172 C23.5913086,11.4046241 23.7224922,11.6754548 23.9848633,11.8701172 C24.2472344,12.0647796 24.5773092,12.1621094 24.9750977,12.1621094 Z M24.7719727,13.1206055 C24.1075813,13.1206055 23.5563987,12.9375832 23.1184082,12.5715332 C22.6804177,12.2054832 22.4614258,11.709313 22.4614258,11.0830078 C22.4614258,9.83039738 23.2929604,9.15543668 24.9560547,9.05810547 L26.9301758,8.9375 L26.9301758,8.31542969 C26.9301758,7.44368054 26.4139049,7.0078125 25.3813477,7.0078125 C24.9708638,7.0078125 24.6302097,7.08186775 24.359375,7.22998047 C24.0885403,7.37809319 23.9150394,7.58756375 23.8388672,7.85839844 L22.734375,7.85839844 C22.8063155,7.30826548 23.0898413,6.86710778 23.5849609,6.53491211 C24.0800806,6.20271644 24.6915654,6.03662109 25.4194336,6.03662109 C26.2530966,6.03662109 26.8952614,6.23868613 27.3459473,6.64282227 C27.7966331,7.0469584 28.0219727,7.60448863 28.0219727,8.31542969 L28.0219727,13 L26.980957,13 L26.980957,11.9907227 L26.8793945,11.9907227 C26.6593413,12.3546568 26.3673521,12.6339508 26.003418,12.8286133 C25.6394839,13.0232757 25.2290062,13.1206055 24.7719727,13.1206055 Z M29.8056641,8.02978516 C29.8056641,7.46272503 30.0489885,6.98877144 30.5356445,6.60791016 C31.0223006,6.22704888 31.6295537,6.03662109 32.3574219,6.03662109 C33.0768265,6.03662109 33.6682106,6.20165851 34.1315918,6.53173828 C34.594973,6.86181806 34.8626298,7.30826542 34.9345703,7.87109375 L33.8554688,7.87109375 C33.7835283,7.59602727 33.6184909,7.37597739 33.3603516,7.2109375 C33.1022123,7.04589761 32.7657898,6.96337891 32.3510742,6.96337891 C31.9448222,6.96337891 31.6020522,7.05753487 31.3227539,7.24584961 C31.0434556,7.43416435 30.9038086,7.68066254 30.9038086,7.98535156 C30.9038086,8.21810012 31.0011383,8.4117017 31.1958008,8.56616211 C31.3904632,8.72062252 31.6888001,8.84651644 32.0908203,8.94384766 L33.1445312,9.19775391 C33.7877636,9.35433021 34.2670069,9.57966975 34.5822754,9.8737793 C34.8975439,10.1678888 35.0551758,10.5603817 35.0551758,11.0512695 C35.0551758,11.6648794 34.7928086,12.1631654 34.2680664,12.5461426 C33.7433242,12.9291198 33.091638,13.1206055 32.3129883,13.1206055 C31.5512657,13.1206055 30.9270858,12.9513363 30.4404297,12.612793 C29.9537736,12.2742496 29.6808271,11.8214547 29.621582,11.2543945 L30.7451172,11.2543945 C30.8382166,11.5421564 31.0201809,11.7717277 31.2910156,11.9431152 C31.5618503,12.1145028 31.9151996,12.2001953 32.3510742,12.2001953 C32.8123395,12.2001953 33.1910792,12.1007497 33.4873047,11.9018555 C33.7835301,11.7029612 33.9316406,11.4469417 33.9316406,11.1337891 C33.9316406,10.8968087 33.8417164,10.6989754 33.6618652,10.5402832 C33.4820141,10.381591 33.2101255,10.2578129 32.8461914,10.1689453 L31.671875,9.88330078 C31.0328744,9.72672448 30.5620946,9.50244287 30.2595215,9.21044922 C29.9569484,8.91845557 29.8056641,8.52490482 29.8056641,8.02978516 Z M36.5341797,8.02978516 C36.5341797,7.46272503 36.7775041,6.98877144 37.2641602,6.60791016 C37.7508162,6.22704888 38.3580693,6.03662109 39.0859375,6.03662109 C39.8053421,6.03662109 40.3967262,6.20165851 40.8601074,6.53173828 C41.3234886,6.86181806 41.5911455,7.30826542 41.6630859,7.87109375 L40.5839844,7.87109375 C40.5120439,7.59602727 40.3470065,7.37597739 40.0888672,7.2109375 C39.8307279,7.04589761 39.4943055,6.96337891 39.0795898,6.96337891 C38.6733378,6.96337891 38.3305678,7.05753487 38.0512695,7.24584961 C37.7719713,7.43416435 37.6323242,7.68066254 37.6323242,7.98535156 C37.6323242,8.21810012 37.729654,8.4117017 37.9243164,8.56616211 C38.1189788,8.72062252 38.4173157,8.84651644 38.8193359,8.94384766 L39.8730469,9.19775391 C40.5162793,9.35433021 40.9955225,9.57966975 41.310791,9.8737793 C41.6260595,10.1678888 41.7836914,10.5603817 41.7836914,11.0512695 C41.7836914,11.6648794 41.5213242,12.1631654 40.996582,12.5461426 C40.4718398,12.9291198 39.8201536,13.1206055 39.0415039,13.1206055 C38.2797813,13.1206055 37.6556014,12.9513363 37.1689453,12.612793 C36.6822892,12.2742496 36.4093427,11.8214547 36.3500977,11.2543945 L37.4736328,11.2543945 C37.5667322,11.5421564 37.7486966,11.7717277 38.0195312,11.9431152 C38.2903659,12.1145028 38.6437153,12.2001953 39.0795898,12.2001953 C39.5408552,12.2001953 39.9195949,12.1007497 40.2158203,11.9018555 C40.5120458,11.7029612 40.6601562,11.4469417 40.6601562,11.1337891 C40.6601562,10.8968087 40.570232,10.6989754 40.3903809,10.5402832 C40.2105297,10.381591 39.9386411,10.2578129 39.574707,10.1689453 L38.4003906,9.88330078 C37.76139,9.72672448 37.2906102,9.50244287 36.9880371,9.21044922 C36.685464,8.91845557 36.5341797,8.52490482 36.5341797,8.02978516 Z M52.0288086,6.15722656 L51.8352051,6.84912109 C51.7061354,7.31038642 51.5463877,7.88061184 51.355957,8.55981445 L50.784668,10.5974121 C50.5942373,11.2766147 50.4344896,11.8468401 50.3054199,12.3081055 L50.1118164,13 L49.0009766,13 L47.4711914,7.70605469 L47.3696289,7.70605469 L45.8461914,13 L44.7416992,13 L42.824707,6.15722656 L43.9291992,6.15722656 L45.2749023,11.6289062 L45.3764648,11.6289062 L46.90625,6.15722656 L47.9536133,6.15722656 L49.4833984,11.6289062 L49.5849609,11.6289062 L50.9306641,6.15722656 L52.0288086,6.15722656 Z M56.2246094,13.1206055 C55.2512972,13.1206055 54.4821806,12.8042838 53.9172363,12.1716309 C53.3522921,11.538978 53.0698242,10.6746474 53.0698242,9.57861328 C53.0698242,8.47834736 53.3522921,7.61295888 53.9172363,6.98242188 C54.4821806,6.35188487 55.2512972,6.03662109 56.2246094,6.03662109 C57.1979215,6.03662109 57.9670382,6.35188487 58.5319824,6.98242188 C59.0969267,7.61295888 59.3793945,8.47834736 59.3793945,9.57861328 C59.3793945,10.6746474 59.0969267,11.538978 58.5319824,12.1716309 C57.9670382,12.8042838 57.1979215,13.1206055 56.2246094,13.1206055 Z M56.2246094,12.1367188 C56.8720735,12.1367188 57.3714175,11.9124371 57.7226562,11.4638672 C58.073895,11.0152972 58.2495117,10.3868856 58.2495117,9.57861328 C58.2495117,8.76610922 58.073895,8.1366396 57.7226562,7.69018555 C57.3714175,7.24373149 56.8720735,7.02050781 56.2246094,7.02050781 C55.5771452,7.02050781 55.0778012,7.24373149 54.7265625,7.69018555 C54.3753238,8.1366396 54.199707,8.76610922 54.199707,9.57861328 C54.199707,10.3868856 54.3753238,11.0152972 54.7265625,11.4638672 C55.0778012,11.9124371 55.5771452,12.1367188 56.2246094,12.1367188 Z M61.0170898,13 L61.0170898,6.15722656 L62.0581055,6.15722656 L62.0581055,7.17285156 L62.159668,7.17285156 C62.261231,6.83854 62.4897443,6.56559351 62.8452148,6.35400391 C63.2006854,6.14241431 63.6048154,6.03662109 64.0576172,6.03662109 C64.1464848,6.03662109 64.2427566,6.03979489 64.3464355,6.04614258 C64.4501145,6.05249027 64.535807,6.05989579 64.6035156,6.06835938 L64.6035156,7.16015625 C64.5611977,7.14746087 64.4617521,7.13370776 64.3051758,7.11889648 C64.1485995,7.10408521 64.0153,7.09667969 63.9052734,7.09667969 C63.384763,7.09667969 62.9552426,7.25325364 62.6166992,7.56640625 C62.2781559,7.87955886 62.1088867,8.27734134 62.1088867,8.75976562 L62.1088867,13 L61.0170898,13 Z M68.4248047,13.1206055 C67.5488237,13.1206055 66.8505885,12.7989941 66.3300781,12.1557617 C65.8095677,11.5125293 65.5493164,10.6534884 65.5493164,9.57861328 C65.5493164,8.50373812 65.8116836,7.64469723 66.3364258,7.00146484 C66.861168,6.35823246 67.5572873,6.03662109 68.4248047,6.03662109 C68.9029972,6.03662109 69.3314597,6.14241431 69.7102051,6.35400391 C70.0889505,6.56559351 70.3756501,6.85969864 70.5703125,7.23632812 L70.6655273,7.23632812 L70.6655273,3.44042969 L71.7573242,3.44042969 L71.7573242,13 L70.7163086,13 L70.7163086,11.9082031 L70.6147461,11.9082031 C70.3989247,12.2890644 70.098472,12.5863433 69.7133789,12.8000488 C69.3282858,13.0137543 68.8987654,13.1206055 68.4248047,13.1206055 Z M68.6787109,7.02050781 C68.0566375,7.02050781 67.5678729,7.24796322 67.2124023,7.70288086 C66.8569318,8.1577985 66.6791992,8.78303639 66.6791992,9.57861328 C66.6791992,10.378422 66.8558739,11.0047178 67.2092285,11.4575195 C67.5625831,11.9103213 68.0524057,12.1367188 68.6787109,12.1367188 C69.3007844,12.1367188 69.7916649,11.9082054 70.1513672,11.4511719 C70.5110695,10.9941383 70.690918,10.3699584 70.690918,9.57861328 C70.690918,8.79573176 70.5100116,8.17366767 70.1481934,7.71240234 C69.7863751,7.25113702 69.2965526,7.02050781 68.6787109,7.02050781 Z" id="password" fill="#14232A"></path>
                <g id="Group-12" transform="translate(0.500000, 28.000000)">
                    <polygon id="Rectangle-19" fill="#E3E3E3" opacity="0.479408482" points="0.520866254 0.15 83.6182421 0.15 83.6182421 14.85 0.520866254 14.85"></polygon>
                    <g id="Group-8" transform="translate(8.870866, 4.700000)" fill="#01AD9F">
                        <circle id="Oval-4" cx="2.8" cy="2.8" r="2.8"></circle>
                        <circle id="Oval-4" cx="12.1333333" cy="2.8" r="2.8"></circle>
                        <circle id="Oval-4" cx="21.4666667" cy="2.8" r="2.8"></circle>
                        <circle id="Oval-4" cx="30.8" cy="2.8" r="2.8"></circle>
                    </g>
                </g>
            </g>
        </g>
    </g>
</svg>