<?xml version="1.0" encoding="UTF-8"?>
<svg width="134px" height="101px" viewBox="0 0 134 101" version="1.1" xmlns="http://www.w3.org/2000/svg" xmlns:xlink="http://www.w3.org/1999/xlink">
    <!-- Generator: Sketch 51.2 (57519) - http://www.bohemiancoding.com/sketch -->
    <title>feature-password-small</title>
    <desc>Created with Sketch.</desc>
    <defs>
        <rect id="path-1" x="0.272324888" y="0.492676197" width="116.449058" height="74.2021277"></rect>
        <filter x="-9.4%" y="-13.5%" width="118.9%" height="129.6%" filterUnits="objectBoundingBox" id="filter-2">
            <feOffset dx="0" dy="1" in="SourceAlpha" result="shadowOffsetOuter1"></feOffset>
            <feGaussianBlur stdDeviation="3.5" in="shadowOffsetOuter1" result="shadowBlurOuter1"></feGaussianBlur>
            <feColorMatrix values="0 0 0 0 0   0 0 0 0 0   0 0 0 0 0  0 0 0 0.0683876812 0" type="matrix" in="shadowBlurOuter1"></feColorMatrix>
        </filter>
    </defs>
    <g id="feature-password-small" stroke="none" stroke-width="1" fill="none" fill-rule="evenodd">
        <g id="Group" transform="translate(8.000000, 13.000000)">
            <g id="Rectangle-16">
                <use fill="black" fill-opacity="1" filter="url(#filter-2)" xlink:href="#path-1"></use>
                <use fill="#FFFFFF" fill-rule="evenodd" xlink:href="#path-1"></use>
            </g>
            <g id="Group-9" transform="translate(23.637265, 14.056506)">
                <path d="M14.7087369,4.816453 C15.4073304,4.816453 15.9660272,5.07305781 16.3848442,5.58627514 C16.8036612,6.09949247 17.0130665,6.78489743 17.0130665,7.6425106 C17.0130665,8.49674733 16.8036612,9.1813082 16.3848442,9.69621374 C15.9660272,10.2111193 15.4073304,10.4685682 14.7087369,10.4685682 C14.3187454,10.4685682 13.972845,10.3875351 13.6710255,10.2254665 C13.369206,10.0633978 13.1436926,9.83886862 12.9944784,9.55187209 L12.9130893,9.55187209 L12.9130893,12.1956034 L12.0381562,12.1956034 L12.0381562,4.91268077 L12.8723947,4.91268077 L12.8723947,5.82431225 L12.9537838,5.82431225 C13.1301278,5.51030428 13.373445,5.2638286 13.6837426,5.08487783 C13.9940402,4.90592705 14.3357015,4.816453 14.7087369,4.816453 Z M14.5001773,9.68355219 C15.0054706,9.68355219 15.3996952,9.50291591 15.682863,9.14163792 C15.9660308,8.78035994 16.1076125,8.28065583 16.1076125,7.6425106 C16.1076125,7.00436537 15.9660308,6.50466126 15.682863,6.14338327 C15.3996952,5.78210528 15.0071662,5.601469 14.5052641,5.601469 C14.0101444,5.601469 13.6167676,5.78463757 13.3251217,6.1509802 C13.0334759,6.51732283 12.8876552,7.01449466 12.8876552,7.6425106 C12.8876552,8.26715011 13.0334759,8.76347784 13.3251217,9.13150869 C13.6167676,9.49953953 14.0084488,9.68355219 14.5001773,9.68355219 Z M20.0142906,9.70381067 C20.4653243,9.70381067 20.8392018,9.57297598 21.1359345,9.31130267 C21.4326672,9.04962936 21.5810313,8.72465287 21.5810313,8.33636345 L21.5810313,7.83496613 L20.1058534,7.9311939 C19.3055229,7.98521678 18.9053637,8.28233814 18.9053637,8.8225669 C18.9053637,9.09943415 19.0104903,9.31552241 19.2207466,9.47083818 C19.4310029,9.62615395 19.6955149,9.70381067 20.0142906,9.70381067 Z M19.8515123,10.4685682 C19.3190891,10.4685682 18.877388,10.3225398 18.5263956,10.0304786 C18.1754033,9.73841744 17.9999097,9.34253699 17.9999097,8.84282538 C17.9999097,7.84340217 18.6662765,7.3048697 19.9990301,7.22721181 L21.5810313,7.13098404 L21.5810313,6.63465135 C21.5810313,5.93910681 21.1673074,5.59133976 20.3398471,5.59133976 C20.0108977,5.59133976 19.7379078,5.6504264 19.520869,5.76860144 C19.3038303,5.88677648 19.1647919,6.05390725 19.1037497,6.26999875 L18.218643,6.26999875 C18.2762939,5.83106288 18.5035029,5.47907536 18.9002769,5.21402562 C19.2970509,4.94897588 19.7870764,4.816453 20.370368,4.816453 C21.0384404,4.816453 21.553052,4.9776751 21.914218,5.30012415 C22.2753841,5.62257319 22.4559644,6.06741114 22.4559644,6.63465135 L22.4559644,10.3723404 L21.6217258,10.3723404 L21.6217258,9.56706595 L21.5403367,9.56706595 C21.3639927,9.85743891 21.1300013,10.0802799 20.8383555,10.2355957 C20.5467097,10.3909115 20.2177652,10.4685682 19.8515123,10.4685682 Z M23.8853609,6.40674348 C23.8853609,5.95430189 24.0803538,5.57614742 24.4703453,5.27226874 C24.8603368,4.96839006 25.3469711,4.816453 25.9302627,4.816453 C26.5067719,4.816453 26.9806893,4.94813179 27.352029,5.21149331 C27.7233688,5.47485483 27.9378609,5.83106283 27.9955118,6.28012799 L27.1307524,6.28012799 C27.0731014,6.06066006 26.9408454,5.88508834 26.7339804,5.75340758 C26.5271153,5.62172682 26.2575165,5.55588743 25.9251759,5.55588743 C25.5996178,5.55588743 25.3249322,5.63101186 25.101111,5.78126299 C24.8772898,5.93151411 24.7653809,6.1281882 24.7653809,6.37129114 C24.7653809,6.55699478 24.843378,6.71146412 24.9993746,6.83470381 C25.1553712,6.9579435 25.3944494,7.05839078 25.7166163,7.13604866 L26.5610285,7.33863344 C27.0764955,7.46356134 27.4605466,7.64335353 27.7131933,7.8780154 C27.96584,8.11267727 28.0921614,8.42583643 28.0921614,8.81750229 C28.0921614,9.3070846 27.8819083,9.70465325 27.4613957,10.0102201 C27.0408831,10.315787 26.5186414,10.4685682 25.894655,10.4685682 C25.2842335,10.4685682 24.7840345,10.333513 24.394043,10.0633986 C24.0040515,9.79328426 23.7853204,9.4320117 23.7378431,8.9795701 L24.6382103,8.9795701 C24.7128174,9.20916733 24.8586381,9.3923359 25.0756769,9.5290813 C25.2927157,9.66582671 25.5758792,9.73419839 25.9251759,9.73419839 C26.29482,9.73419839 26.5983306,9.65485348 26.8357168,9.49616128 C27.0731029,9.33746908 27.1917942,9.13319814 27.1917942,8.88334234 C27.1917942,8.69426227 27.1197316,8.53641654 26.9756043,8.40980043 C26.831477,8.28318431 26.6135937,8.18442522 26.3219479,8.1135202 L25.3808861,7.88561233 C24.8688103,7.76068442 24.4915416,7.58173633 24.2490686,7.34876267 C24.0065956,7.11578902 23.8853609,6.80178576 23.8853609,6.40674348 Z M29.2773906,6.40674348 C29.2773906,5.95430189 29.4723834,5.57614742 29.8623749,5.27226874 C30.2523664,4.96839006 30.7390007,4.816453 31.3222924,4.816453 C31.8988016,4.816453 32.3727189,4.94813179 32.7440587,5.21149331 C33.1153984,5.47485483 33.3298906,5.83106283 33.3875415,6.28012799 L32.522782,6.28012799 C32.4651311,6.06066006 32.3328751,5.88508834 32.12601,5.75340758 C31.9191449,5.62172682 31.6495462,5.55588743 31.3172056,5.55588743 C30.9916474,5.55588743 30.7169619,5.63101186 30.4931407,5.78126299 C30.2693194,5.93151411 30.1574105,6.1281882 30.1574105,6.37129114 C30.1574105,6.55699478 30.2354076,6.71146412 30.3914042,6.83470381 C30.5474008,6.9579435 30.786479,7.05839078 31.1086459,7.13604866 L31.9530581,7.33863344 C32.4685252,7.46356134 32.8525763,7.64335353 33.1052229,7.8780154 C33.3578696,8.11267727 33.4841911,8.42583643 33.4841911,8.81750229 C33.4841911,9.3070846 33.2739379,9.70465325 32.8534253,10.0102201 C32.4329127,10.315787 31.9106711,10.4685682 31.2866846,10.4685682 C30.6762631,10.4685682 30.1760641,10.333513 29.7860726,10.0633986 C29.3960811,9.79328426 29.17735,9.4320117 29.1298728,8.9795701 L30.03024,8.9795701 C30.1048471,9.20916733 30.2506678,9.3923359 30.4677065,9.5290813 C30.6847453,9.66582671 30.9679088,9.73419839 31.3172056,9.73419839 C31.6868497,9.73419839 31.9903603,9.65485348 32.2277464,9.49616128 C32.4651326,9.33746908 32.5838238,9.13319814 32.5838238,8.88334234 C32.5838238,8.69426227 32.5117613,8.53641654 32.367634,8.40980043 C32.2235067,8.28318431 32.0056234,8.18442522 31.7139776,8.1135202 L30.7729158,7.88561233 C30.26084,7.76068442 29.8835712,7.58173633 29.6410982,7.34876267 C29.3986252,7.11578902 29.2773906,6.80178576 29.2773906,6.40674348 Z M41.6943192,4.91268077 L41.5391712,5.46472428 C41.4357387,5.83275512 41.3077216,6.28772221 41.1551163,6.82963919 L40.6973024,8.455382 C40.544697,8.99729898 40.41668,9.45226607 40.3132475,9.82029692 L40.1580994,10.3723404 L39.2679059,10.3723404 L38.0419822,6.14844789 L37.960593,6.14844789 L36.7397561,10.3723404 L35.8546494,10.3723404 L34.3184296,4.91268077 L35.2035364,4.91268077 L36.2819423,9.27838265 L36.3633314,9.27838265 L37.5892551,4.91268077 L38.4285805,4.91268077 L39.6545042,9.27838265 L39.7358934,9.27838265 L40.8142993,4.91268077 L41.6943192,4.91268077 Z M45.0567075,10.4685682 C44.2767245,10.4685682 43.6603776,10.2161839 43.2076483,9.7114076 C42.754919,9.20663135 42.5285578,8.51700591 42.5285578,7.6425106 C42.5285578,6.76463885 42.754919,6.07416932 43.2076483,5.57108128 C43.6603776,5.06799325 44.2767245,4.816453 45.0567075,4.816453 C45.8366905,4.816453 46.4530375,5.06799325 46.9057667,5.57108128 C47.358496,6.07416932 47.5848573,6.76463885 47.5848573,7.6425106 C47.5848573,8.51700591 47.358496,9.20663135 46.9057667,9.7114076 C46.4530375,10.2161839 45.8366905,10.4685682 45.0567075,10.4685682 Z M45.0567075,9.68355219 C45.5755658,9.68355219 45.975725,9.5046041 46.2571971,9.14670254 C46.5386693,8.78880099 46.6794032,8.28740868 46.6794032,7.6425106 C46.6794032,6.99423608 46.5386693,6.49199968 46.2571971,6.13578634 C45.975725,5.779573 45.5755658,5.601469 45.0567075,5.601469 C44.5378492,5.601469 44.13769,5.779573 43.8562179,6.13578634 C43.5747458,6.49199968 43.4340118,6.99423608 43.4340118,7.6425106 C43.4340118,8.28740868 43.5747458,8.78880099 43.8562179,9.14670254 C44.13769,9.5046041 44.5378492,9.68355219 45.0567075,9.68355219 Z M48.8972569,10.3723404 L48.8972569,4.91268077 L49.7314955,4.91268077 L49.7314955,5.72301986 L49.8128846,5.72301986 C49.8942741,5.45628191 50.0773978,5.23850546 50.3622612,5.06968397 C50.6471246,4.90086248 50.9709822,4.816453 51.3338439,4.816453 C51.4050598,4.816453 51.4822091,4.81898528 51.5652942,4.82404993 C51.6483794,4.82911457 51.7170508,4.83502324 51.7713105,4.8417761 L51.7713105,5.71289063 C51.7373982,5.70276134 51.6577054,5.6917881 51.5322299,5.6799706 C51.4067544,5.6681531 51.2999322,5.66224443 51.2117602,5.66224443 C50.7946389,5.66224443 50.4504341,5.78717046 50.1791357,6.03702626 C49.9078372,6.28688207 49.77219,6.60426171 49.77219,6.9891747 L49.77219,10.3723404 L48.8972569,10.3723404 Z M54.8335764,10.4685682 C54.1315916,10.4685682 53.572047,10.2119634 53.1549256,9.69874605 C52.7378043,9.18552873 52.5292467,8.50012376 52.5292467,7.6425106 C52.5292467,6.78489743 52.7394999,6.09949247 53.1600124,5.58627514 C53.580525,5.07305781 54.1383741,4.816453 54.8335764,4.816453 C55.2167854,4.816453 55.5601424,4.90086248 55.8636575,5.06968397 C56.1671726,5.23850546 56.3969251,5.47316381 56.5529217,5.77366606 L56.629224,5.77366606 L56.629224,2.74502369 L57.5041571,2.74502369 L57.5041571,10.3723404 L56.6699185,10.3723404 L56.6699185,9.5012259 L56.5885294,9.5012259 C56.4155766,9.80510458 56.1748029,10.0422952 55.8662009,10.2128049 C55.5575989,10.3833146 55.2133942,10.4685682 54.8335764,10.4685682 Z M55.0370492,5.601469 C54.5385383,5.601469 54.146857,5.78294938 53.8619937,6.14591558 C53.5771303,6.50888178 53.4347007,7.0077418 53.4347007,7.6425106 C53.4347007,8.28065583 53.5762825,8.78035994 53.8594502,9.14163792 C54.142618,9.50291591 54.5351471,9.68355219 55.0370492,9.68355219 C55.5355601,9.68355219 55.9289369,9.50122772 56.2171915,9.1365733 C56.5054461,8.77191889 56.6495712,8.27390297 56.6495712,7.6425106 C56.6495712,7.01787109 56.5045983,6.52154335 56.2146481,6.15351251 C55.9246979,5.78548166 55.5321688,5.601469 55.0370492,5.601469 Z" id="password" fill="#14232A"></path>
                <g id="Group-12" transform="translate(0.400685, 22.340426)">
                    <polygon id="Rectangle-19" fill="#E3E3E3" opacity="0.479408482" points="0.417406518 0.119680851 67.0091392 0.119680851 67.0091392 11.8484043 0.417406518 11.8484043"></polygon>
                    <g id="Group-8" transform="translate(7.108845, 3.750000)" fill="#01AD9F">
                        <ellipse id="Oval-4" cx="2.24383562" cy="2.23404255" rx="2.24383562" ry="2.23404255"></ellipse>
                        <ellipse id="Oval-4" cx="9.72328767" cy="2.23404255" rx="2.24383562" ry="2.23404255"></ellipse>
                        <ellipse id="Oval-4" cx="17.2027397" cy="2.23404255" rx="2.24383562" ry="2.23404255"></ellipse>
                        <ellipse id="Oval-4" cx="24.6821918" cy="2.23404255" rx="2.24383562" ry="2.23404255"></ellipse>
                    </g>
                </g>
            </g>
        </g>
    </g>
</svg>